# xmcd
#
# Track frame offsets:
#	150
#	16758
#	38822
#	53058
#	77528
#	94396
#	113298
#	133038
#	156636
#	180351
#	200301
#
# Disc length: 2830 seconds
#
# Revision: 0
# Processed by: cddbd v1.5.2PL0 Copyright (c) Steve Scherf et al.
# Submitted via: EZCDAudioConverter 8.0.2.1
#
DISCID=7f0b0c0b
DTITLE=Nguyễn Phi Hùng - Vol 08. Nếu Anh Quên Tất Cả
DYEAR=2003
DGENRE=
TTITLE0=Đưa nhau về
TTITLE1=Tình yêu sâu kín
TTITLE2=Từ ngày vắng em
TTITLE3=Nếu Anh Quên Tất Cả
TTITLE4=Hãy hiểu cho anh
TTITLE5=Bắt đom đóm viết thư tình
TTITLE6=Lần đầu
TTITLE7=Tình ca định mệnh
TTITLE8=LK Nhớ đừng khóc
TTITLE9=Chỉ cần tình yêu
TTITLE10=Vui cùng thiên nhiên
EXTD=
EXTT0=
EXTT1=
EXTT2=
EXTT3=
EXTT4=
EXTT5=
EXTT6=
EXTT7=
EXTT8=
EXTT9=
EXTT10=
PLAYORDER=
